<svg xmlns="http://www.w3.org/2000/svg" xmlns:xlink="http://www.w3.org/1999/xlink" width="1770.997" height="676.961" viewBox="0 0 1770.997 676.961">
  <defs>
    <clipPath id="clip-path">
      <rect id="Rectangle_254" data-name="Rectangle 254" width="500" height="362.183" fill="none"/>
    </clipPath>
  </defs>
  <g id="Layer_2" data-name="Layer 2" transform="translate(349.017 6.806)">
    <g id="Art" transform="translate(0.98)">
      <g id="Web" transform="translate(0)">
        <g id="Web_with_icon" data-name="Web with icon" transform="translate(-137 -5.82)">
          <line id="Line_83" data-name="Line 83" x2="1014.187" transform="translate(141.901 66.472)" fill="none" stroke="#ded8d5" stroke-miterlimit="10" stroke-width="1.97"/>
          <rect id="Rectangle_242" data-name="Rectangle 242" width="1014.187" height="627.477" rx="6.52" transform="translate(141.901)" fill="none" stroke="#ded8d5" stroke-miterlimit="10" stroke-width="1.97"/>
          <path id="Path_476" data-name="Path 476" d="M113.178,112.05a9.279,9.279,0,1,1-9.279-9.279A9.293,9.293,0,0,1,113.178,112.05Z" transform="translate(95.555 -78.139)" fill="#ffb1a5"/>
          <path id="Path_477" data-name="Path 477" d="M130.927,112.05a9.279,9.279,0,1,1-9.264-9.279A9.279,9.279,0,0,1,130.927,112.05Z" transform="translate(113.857 -78.139)" fill="#ead254"/>
          <path id="Path_478" data-name="Path 478" d="M148.7,112.05a9.287,9.287,0,1,1-9.28-9.279A9.282,9.282,0,0,1,148.7,112.05Z" transform="translate(132.158 -78.139)" fill="#00857b"/>
          <rect id="Rectangle_243" data-name="Rectangle 243" width="262.681" height="244.768" rx="5.99" transform="translate(1037.319 45.635)" fill="#ededed"/>
          <rect id="Rectangle_244" data-name="Rectangle 244" width="262.681" height="244.768" rx="5.99" transform="translate(1037.319 45.635)" fill="none" stroke="#ded8d5" stroke-miterlimit="10" stroke-width="1.97"/>
          <rect id="Rectangle_245" data-name="Rectangle 245" width="148.339" height="125.979" rx="6.02" transform="translate(1243.235 226.733) rotate(180)" fill="#c98bd2"/>
          <path id="Path_479" data-name="Path 479" d="M628,204.888H559.56V158.97H628v45.918Z" transform="translate(574.903 -20.196)" fill="none" stroke="#fff" stroke-linecap="round" stroke-linejoin="round" stroke-width="1.65"/>
          <path id="Path_480" data-name="Path 480" d="M559.56,158.97l34.253,26.977L628,158.97" transform="translate(574.903 -20.196)" fill="none" stroke="#fff" stroke-linecap="round" stroke-linejoin="round" stroke-width="1.65"/>
          <rect id="Rectangle_246" data-name="Rectangle 246" width="250.516" height="221.392" rx="5.71" transform="translate(0 253.603)" fill="#ededed"/>
          <rect id="Rectangle_247" data-name="Rectangle 247" width="250.516" height="221.392" rx="5.71" transform="translate(0 253.603)" fill="none" stroke="#ded8d5" stroke-miterlimit="10" stroke-width="1.97"/>
          <rect id="Rectangle_248" data-name="Rectangle 248" width="144.866" height="140.825" rx="6.64" transform="translate(52.256 291.52)" fill="#ffb1a5"/>
          <path id="Path_481" data-name="Path 481" d="M54.639,261.278a40.956,40.956,0,1,0,57.9,0A40.984,40.984,0,0,0,54.639,261.278Zm57.776,5.889H99.4a83.106,83.106,0,0,0-5.077-12.288A37.143,37.143,0,0,1,112.415,267.167ZM68.546,287.891a65.518,65.518,0,0,1,2.033-15.917h26.2a66.213,66.213,0,0,1,1.93,15.917Zm29.919,4.775a79.213,79.213,0,0,1-2.805,15.853H71.515a79.214,79.214,0,0,1-2.805-15.853ZM83.6,253.288a35.1,35.1,0,0,1,5.77.477,74.97,74.97,0,0,1,5.949,13.4H71.8a74.736,74.736,0,0,1,6.092-13.4A34.3,34.3,0,0,1,83.6,253.288Zm-10.743,1.592a83.122,83.122,0,0,0-5.081,12.288H54.719A37.227,37.227,0,0,1,72.856,254.879ZM51.492,271.974H66.437A71.491,71.491,0,0,0,64.4,287.891H46.717A36.782,36.782,0,0,1,51.492,271.974Zm0,36.577a36.57,36.57,0,0,1-4.755-15.885H64.428a76.7,76.7,0,0,0,2.479,15.885Zm3.247,4.807H68.327A102.806,102.806,0,0,0,73.341,325.8a36.972,36.972,0,0,1-18.622-12.479Zm28.88,13.879a35.4,35.4,0,0,1-4.855-.318,113,113,0,0,1-5.726-13.561h21.1a113.009,113.009,0,0,1-5.726,13.561,40.657,40.657,0,0,1-4.815.286Zm10.155-1.464a101.062,101.062,0,0,0,5.034-12.415h13.608A37.027,37.027,0,0,1,93.833,325.8Zm21.873-17.222H100.232a77.806,77.806,0,0,0,2.495-15.885h17.814a36.466,36.466,0,0,1-4.834,15.853Zm4.894-20.66H102.854a72.913,72.913,0,0,0-2.029-15.917H115.77A36.836,36.836,0,0,1,120.541,287.891Z" transform="translate(41.972 72.99)" fill="#fff"/>
        </g>
        <g id="Outer" transform="translate(9.003)">
          <path id="Path_482" data-name="Path 482" d="M170.68,66.362H12.663a5.9,5.9,0,0,1-5.9-5.9h0a5.917,5.917,0,0,1,5.9-5.92H170.68a5.918,5.918,0,0,1,5.919,5.92h0A5.92,5.92,0,0,1,170.68,66.362Z" transform="translate(-365.76 161.41)" fill="#c98bd2"/>
          <path id="Path_483" data-name="Path 483" d="M668.827,314.046H592.069a5.866,5.866,0,0,1-5.859-5.884h0a5.918,5.918,0,0,1,5.859-5.933h76.709a5.9,5.9,0,0,1,5.9,5.908h0A5.9,5.9,0,0,1,668.827,314.046Z" transform="translate(737.315 -73.494)" fill="#56dfed"/>
          <rect id="Rectangle_249" data-name="Rectangle 249" width="18.286" height="17.71" rx="2.86" transform="translate(1239.605 265.193)" fill="#c98bd2"/>
          <rect id="Rectangle_250" data-name="Rectangle 250" width="18.286" height="17.71" rx="2.86" transform="translate(-189.297 334.126)" fill="#ffb1a5"/>
          <rect id="Rectangle_251" data-name="Rectangle 251" width="165.275" height="47.444" rx="3.01" transform="translate(1194.873 71.223)" fill="#ffb1a5"/>
          <line id="Line_84" data-name="Line 84" x2="110.869" transform="translate(1217.38 88.123)" fill="none" stroke="#fff" stroke-miterlimit="10" stroke-width="1.18"/>
          <line id="Line_85" data-name="Line 85" x2="45.154" transform="translate(1217.38 99.509)" fill="none" stroke="#fff" stroke-miterlimit="10" stroke-width="1.18"/>
          <path id="Path_484" data-name="Path 484" d="M403.44,54.76V73.265L426.707,54.76Z" transform="translate(809.419 58.533)" fill="#ffb1a5"/>
          <path id="Path_485" data-name="Path 485" d="M202.19,0h78.684A10.051,10.051,0,0,1,290.92,10.062V83.424a10.055,10.055,0,0,1-10.046,10.031H205.4a13.283,13.283,0,0,1-13.28-13.271V10.093a10.1,10.1,0,0,1,2.954-7.135A9.985,9.985,0,0,1,202.19,0Z" transform="translate(-421.408 63)" fill="#56dfed"/>
          <path id="Path_486" data-name="Path 486" d="M254.484,46.243,248.8,40.62a4.859,4.859,0,0,0-3.613-1.712,5.169,5.169,0,0,0-3.586,1.556l-3.223,3.226-.61-.313a8.05,8.05,0,0,1-1-.5,34.711,34.711,0,0,1-8.35-7.631,18.3,18.3,0,0,1-2.588-4.112c.781-.716,1.563-1.558,2.2-2.212l.9-.9a5.389,5.389,0,0,0,1.709-3.722,5.4,5.4,0,0,0-1.709-3.725l-2.808-2.8a9.784,9.784,0,0,1-.9-1.013l-1.929-1.9a5.151,5.151,0,0,0-3.613-1.558,4.9,4.9,0,0,0-3.589,1.559l-3.54,3.5a8.013,8.013,0,0,0-2.295,4.922,18.22,18.22,0,0,0,1.318,7.647,40.789,40.789,0,0,0,7.764,13.162,49.264,49.264,0,0,0,16.064,12.553,27.053,27.053,0,0,0,9.055,2.711h.684a7.885,7.885,0,0,0,6.03-2.617l.122-.095a14.732,14.732,0,0,1,1.88-1.759l1.318-1.308a5.089,5.089,0,0,0,0-7.338Zm-2.319,5.22-1.221,1.215c-.684.591-1.294,1.308-2,2.008a4.776,4.776,0,0,1-3.613,1.558h-.488a21.051,21.051,0,0,1-7.786-2.4,45.7,45.7,0,0,1-14.966-11.76,43.216,43.216,0,0,1-7.324-12.149,12.486,12.486,0,0,1-1.221-6.231,4.3,4.3,0,0,1,1.416-2.911l3.418-3.412a2.016,2.016,0,0,1,1.392-.717,1.807,1.807,0,0,1,1.392.717l1.782,1.682a8.888,8.888,0,0,0,.977,1l2.832,2.82a2.38,2.38,0,0,1,.708,1.4,2.089,2.089,0,0,1-.708,1.4l-.9.9-2.539,2.524-.073.093a2.176,2.176,0,0,0-.61,2.507v.11a22.624,22.624,0,0,0,3.32,5.42,37.13,37.13,0,0,0,9.131,8.334,6.911,6.911,0,0,0,1.318.7,8.366,8.366,0,0,1,1,.514l.1.093a2.305,2.305,0,0,0,2.808-.5l3.54-3.52a1.634,1.634,0,0,1,2.683,0l5.64,5.623a1.919,1.919,0,0,1,0,2.977Z" transform="translate(-411.304 70.416)" fill="#fff"/>
        </g>
      </g>
      <g id="Person" transform="translate(896.477 307.972)">
        <g id="Group_151" data-name="Group 151" clip-path="url(#clip-path)">
          <g id="_3_People" data-name="3 People" transform="translate(3.261 4.399)">
            <g id="_3" data-name="3" transform="translate(280.091 13.836)">
              <path id="Path_487" data-name="Path 487" d="M466.7,287.708l-39.758-5.288.307,3.94-33.975,4.522s-21.909,54.946-2.628,175.792H418.29l9.966-122.536h3.515l9.641,122.536h27.625C488.372,345.828,466.7,287.708,466.7,287.708Z" transform="translate(-376.629 -65.169)" fill="#8e716c"/>
              <line id="Line_86" data-name="Line 86" x2="28.839" transform="translate(38.997 278.976)" fill="none" stroke="#282828" stroke-linecap="round" stroke-linejoin="round" stroke-width="1.23"/>
              <path id="Path_488" data-name="Path 488" d="M483.165,234.438c-3.379-5.444-22.457-5.239-23.481-5.358-5.153-.6,3.276,40.475,14.027,76.4A12.1,12.1,0,0,0,489.99,313.1l.2-.1a12.075,12.075,0,0,0,7.167-13.242C492.277,272.627,487.124,240.752,483.165,234.438Z" transform="translate(-369.929 -69.895)" fill="#ffb1a5"/>
              <path id="Path_489" data-name="Path 489" d="M487.529,248.356l-24.4,9.471-2.287-11.57,25.255-6.3Z" transform="translate(-369.695 -68.922)" fill="#f3978e"/>
              <path id="Path_490" data-name="Path 490" d="M490.451,269.767s-11.535,15.529-10.989,14.812c.546-.734,9.078-25.049,9.078-25.049Z" transform="translate(-368.054 -67.193)" fill="#f3978e"/>
              <path id="Path_491" data-name="Path 491" d="M507.63,249.79l-33.105,42.9a12.14,12.14,0,0,0-2.355,9.488,12.269,12.269,0,0,0,5.358,8.174h0a12.181,12.181,0,0,0,17.337-4.368l27.542-50.833Z" transform="translate(-368.71 -68.055)" fill="#ffb1a5"/>
              <path id="Path_492" data-name="Path 492" d="M513.376,262.084a13.669,13.669,0,1,1,17.2-8.805A13.673,13.673,0,0,1,513.376,262.084Z" transform="translate(-365.877 -69.332)" fill="#ffb1a5"/>
              <path id="Path_493" data-name="Path 493" d="M527.489,241.081s3.751-3.891-2.9-6.6c-6.621-2.713-14.812-2.1-20.068,10.6Z" transform="translate(-365.83 -69.532)" fill="#ffb1a5"/>
              <path id="Path_494" data-name="Path 494" d="M533.6,215.534l13.856,6.007a1.5,1.5,0,0,1,.785.887,1.53,1.53,0,0,1-.136,1.16l-18.225,34.06a1.775,1.775,0,0,1-2.218.836l-13.856-6.007a1.637,1.637,0,0,1-.785-.87,1.562,1.562,0,0,1,.171-1.177l18.225-34.06A1.777,1.777,0,0,1,533.6,215.534Z" transform="translate(-365.069 -71.1)" fill="#372f5f"/>
              <path id="Path_495" data-name="Path 495" d="M532.357,215.007l13.89,6.007a1.546,1.546,0,0,1,.785.887,1.393,1.393,0,0,1-.171,1.16L528.637,257.12a1.746,1.746,0,0,1-2.184.836L512.6,251.95a1.414,1.414,0,0,1-.785-.921,1.434,1.434,0,0,1,.2-1.177l18.225-34.076A1.768,1.768,0,0,1,532.357,215.007Z" transform="translate(-365.183 -71.145)" fill="#261b43"/>
              <path id="Path_496" data-name="Path 496" d="M530.456,218.16l12.181,5.273L527.794,251.2l-12.184-5.273Z" transform="translate(-364.847 -70.863)" fill="#e6e6e6"/>
              <path id="Path_497" data-name="Path 497" d="M542.637,223.433,515.61,245.922l14.846-27.762Z" transform="translate(-364.847 -70.863)" fill="#fff"/>
              <path id="Path_498" data-name="Path 498" d="M520.234,233.33a21.743,21.743,0,0,1,5.87,2.167,3.238,3.238,0,0,1,1.5,3.5h0a3.1,3.1,0,0,1-2.662,2.321l-7.2.921s-3.754,6.517-8.7,7.2l4.505-11.38Z" transform="translate(-365.422 -69.512)" fill="#ffb1a5"/>
              <path id="Path_499" data-name="Path 499" d="M439.847,184.424c-.785,0,51.106,7.176,59.688,66.413l-26.943,4.13-5.444,44.63H392.033L377.12,217.05s16.636-23.864,47.54-32.66Z" transform="translate(-377.12 -73.856)" fill="#56dfed"/>
              <line id="Line_87" data-name="Line 87" y1="25.834" x2="2.341" transform="translate(95.478 155.215)" fill="none" stroke="#282828" stroke-linecap="round" stroke-linejoin="round" stroke-width="1.23"/>
              <path id="Path_500" data-name="Path 500" d="M441.774,186.863V166.31H417.679v20.8a45.849,45.849,0,0,0-6.519,2.628l18.771,11.194,19.211-11.194A31.387,31.387,0,0,0,441.774,186.863Z" transform="translate(-374.109 -75.463)" fill="#ffb1a5"/>
              <path id="Path_501" data-name="Path 501" d="M417,169.131s4.334,11.492,15.87,10.494c10.614-.9,8.942-16.825,8.942-16.825Z" transform="translate(-373.592 -75.772)" fill="#282828"/>
              <path id="Path_502" data-name="Path 502" d="M408.07,155.763c-3.771,3.43-12.216-9.565-8.566-13.216s6.433,2.082,6.433,2.082l1.621,3.874,1.246,5.247.29,1.391Z" transform="translate(-375.209 -77.673)" fill="#f3978e"/>
              <path id="Path_503" data-name="Path 503" d="M401.05,146.7s2.867-1.288,5.444,2.85" transform="translate(-375.006 -77.215)" fill="none" stroke="#282828" stroke-linecap="round" stroke-linejoin="round" stroke-width="0.99"/>
              <path id="Path_504" data-name="Path 504" d="M448.368,155.355c3.481,3.729,13-8.5,9.658-12.439-3.31-3.942-6.519,1.527-6.519,1.527l-1.979,3.72L447.89,153.3l-.41,1.34Z" transform="translate(-370.883 -77.657)" fill="#f3978e"/>
              <path id="Path_505" data-name="Path 505" d="M455.681,146.895s-2.73-1.527-5.631,2.4" transform="translate(-370.658 -77.203)" fill="none" stroke="#282828" stroke-linecap="round" stroke-linejoin="round" stroke-width="0.99"/>
              <path id="Path_506" data-name="Path 506" d="M401.22,133.428c0,17.184,13.054,25.34,29.265,25.34s29.3-8.156,29.3-25.34-13.054-28.9-29.3-28.9C414.274,104.53,401.22,116.236,401.22,133.428Z" transform="translate(-374.984 -80.939)" fill="#282828"/>
              <path id="Path_507" data-name="Path 507" d="M404.871,134.293a118.148,118.148,0,0,0,2.986,26.133c1.45,6.322,5.578,10.751,11.346,14.317l1.092.64a19.939,19.939,0,0,0,20.29.23h0c6.3-3.66,10.682-8.49,12.03-15.247a170.793,170.793,0,0,0,2.73-26.031s2.338-26.645-24.846-26.125C403.3,108.731,404.871,134.293,404.871,134.293Z" transform="translate(-374.651 -80.612)" fill="#ffb1a5"/>
              <path id="Path_508" data-name="Path 508" d="M426.52,146.14v3.677a1.533,1.533,0,0,0,.683,1.288,1.561,1.561,0,0,0,1.434.247l1.672-.461" transform="translate(-372.745 -77.243)" fill="none" stroke="#282828" stroke-linecap="round" stroke-linejoin="round" stroke-width="1.23"/>
              <path id="Path_509" data-name="Path 509" d="M423.645,133.151l-13.515,3.165s.648-3.438,6.143-4.692C421.8,130.378,423.645,133.151,423.645,133.151Z" transform="translate(-374.187 -78.562)" fill="#282828"/>
              <path id="Path_510" data-name="Path 510" d="M433.571,133.151l13.037,3.165s-.58-3.438-5.9-4.692C435.345,130.378,433.571,133.151,433.571,133.151Z" transform="translate(-372.117 -78.562)" fill="#282828"/>
              <circle id="Ellipse_54" data-name="Ellipse 54" cx="2.275" cy="2.275" r="2.275" transform="translate(42.045 62.241)" fill="#282828"/>
              <path id="Path_511" data-name="Path 511" d="M440.17,142.3a2.345,2.345,0,0,1-1.433,2.133,2.292,2.292,0,0,1-2.491-.478,2.27,2.27,0,0,1-.478-2.5,2.288,2.288,0,0,1,4.4.845Z" transform="translate(-371.93 -77.787)" fill="#282828"/>
              <path id="Path_512" data-name="Path 512" d="M419.93,154.87h17.576S429.725,164.341,419.93,154.87Z" transform="translate(-373.322 -76.47)" fill="#fff"/>
              <circle id="Ellipse_55" data-name="Ellipse 55" cx="9.689" cy="9.689" r="9.689" transform="translate(29.664 65.403) rotate(-45)" fill="none" stroke="#dbd47f" stroke-miterlimit="10" stroke-width="1.34"/>
              <circle id="Ellipse_56" data-name="Ellipse 56" cx="9.689" cy="9.689" r="9.689" transform="translate(53.486 65.402) rotate(-45)" fill="none" stroke="#dbd47f" stroke-miterlimit="10" stroke-width="1.34"/>
              <path id="Path_513" data-name="Path 513" d="M425.86,143.009a3.174,3.174,0,0,1,4.433,0" transform="translate(-372.789 -77.603)" fill="none" stroke="#dbd47f" stroke-miterlimit="10" stroke-width="1.34"/>
              <line id="Line_88" data-name="Line 88" x1="3.059" y1="0.087" transform="translate(30.614 65.322)" fill="none" stroke="#dbd47f" stroke-miterlimit="10" stroke-width="1.34"/>
              <line id="Line_89" data-name="Line 89" y1="0.087" x2="3.07" transform="translate(76.872 65.322)" fill="none" stroke="#dbd47f" stroke-miterlimit="10" stroke-width="1.34"/>
              <path id="Path_514" data-name="Path 514" d="M451.593,142.689s-10.887-14.7-8.362-29.589a21.425,21.425,0,0,1,10.17,14.547C455.518,138.133,451.593,142.689,451.593,142.689Z" transform="translate(-371.288 -80.176)" fill="#282828"/>
              <path id="Path_515" data-name="Path 515" d="M405,143.777s12.628-16.7,10.1-31.577a24.775,24.775,0,0,0-10.87,15.553C402.13,138.214,405,143.777,405,143.777Z" transform="translate(-374.794 -80.257)" fill="#282828"/>
              <path id="Path_516" data-name="Path 516" d="M454.245,119.491s-13.976,15.247-52.164,12.67c0,0,5.836-22.43,24.351-24.828C426.482,107.334,447.845,104.808,454.245,119.491Z" transform="translate(-374.906 -80.702)" fill="#282828"/>
              <circle id="Ellipse_57" data-name="Ellipse 57" cx="18.246" cy="18.246" r="18.246" transform="translate(57.487 36.026) rotate(-80.83)" fill="#282828"/>
            </g>
            <g id="_2" data-name="2" transform="translate(25.673 34.206)">
              <path id="Path_517" data-name="Path 517" d="M251.419,287.941l-33.974-4.522.316-3.959-39.751,5.29s-21.68,58.137-2.355,178.966H203.29L212.931,341.2h3.515l9.931,122.519h27.661C273.329,342.887,251.419,287.941,251.419,287.941Z" transform="translate(-141.283 -85.8)" fill="#282828"/>
              <path id="Path_518" data-name="Path 518" d="M249.262,138.235a62.723,62.723,0,0,1-11.416-20.587c-3.361-9.5-14.359-5.64-14.359-5.64s-9.172-11.791-22.959-7.687-18.575,13.882-18.89,25.6-9.453,13.489-16.526,26.986c-12.474,23.838,8.541,43.914,46.814,38.343v-.375a40.044,40.044,0,0,0,14.018,1.314C271.914,193.454,267.486,159.667,249.262,138.235Z" transform="translate(-141.826 -101.405)" fill="#282828"/>
              <path id="Path_519" data-name="Path 519" d="M228.377,152.8c3.788,3.43,12.235-9.564,8.583-13.207s-6.433,2.073-6.433,2.073l-1.638,3.873-1.229,5.247-.29,1.391Z" transform="translate(-135.979 -98.305)" fill="#f3978e"/>
              <path id="Path_520" data-name="Path 520" d="M234.994,143.737s-2.867-1.288-5.444,2.85" transform="translate(-135.792 -97.847)" fill="none" stroke="#282828" stroke-linecap="round" stroke-linejoin="round" stroke-width="0.99"/>
              <path id="Path_521" data-name="Path 521" d="M188.119,152.4c-3.464,3.72-12.977-8.5-9.65-12.44s6.578,1.519,6.578,1.519L187,145.213l1.664,5.119.418,1.348Z" transform="translate(-140.381 -98.288)" fill="#f3978e"/>
              <path id="Path_522" data-name="Path 522" d="M180.38,143.935s2.739-1.519,5.614,2.4" transform="translate(-140.151 -97.838)" fill="none" stroke="#282828" stroke-linecap="round" stroke-linejoin="round" stroke-width="0.99"/>
              <path id="Path_523" data-name="Path 523" d="M239.152,130.463c0,17.2-13.063,25.344-29.282,25.344s-29.29-8.144-29.29-25.344,13.062-28.893,29.29-28.893S239.152,113.276,239.152,130.463Z" transform="translate(-140.127 -101.57)" fill="#282828"/>
              <rect id="Rectangle_252" data-name="Rectangle 252" width="24.093" height="31.191" transform="translate(57.573 67.259)" fill="#ffb1a5"/>
              <path id="Path_524" data-name="Path 524" d="M193.09,161.57s6.7,13.37,14.948,15.459a11.51,11.51,0,0,0,6.68-.392c3.106-1.091,7.048-5.716,7.713-10.878l.316-2.935S208.064,170.853,193.09,161.57Z" transform="translate(-139.017 -96.245)" fill="#282828"/>
              <path id="Path_525" data-name="Path 525" d="M234.83,131.333a118.151,118.151,0,0,1-2.978,26.133c-1.45,6.33-5.554,10.758-11.356,14.308l-1.092.648a19.9,19.9,0,0,1-20.28.23h0c-6.288-3.66-10.682-8.5-11.979-15.246a170.82,170.82,0,0,1-2.73-26.031s-2.338-26.654,24.871-26.125S234.83,131.333,234.83,131.333Z" transform="translate(-139.794 -101.244)" fill="#ffb1a5"/>
              <path id="Path_526" data-name="Path 526" d="M205.81,144.5v2.176a1.586,1.586,0,0,0,.119.623,1.668,1.668,0,0,0,1.961.9l1.689-.452" transform="translate(-137.894 -97.765)" fill="none" stroke="#282828" stroke-linecap="round" stroke-linejoin="round" stroke-width="1.23"/>
              <path id="Path_527" data-name="Path 527" d="M211,131.405l14.471,3.413s-.648-3.712-6.519-5.068C213.065,128.386,211,131.405,211,131.405Z" transform="translate(-137.431 -99.107)" fill="#282828"/>
              <path id="Path_528" data-name="Path 528" d="M205.2,131.405l-14.658,3.413s.666-3.712,6.663-5.068S205.2,131.405,205.2,131.405Z" transform="translate(-139.251 -99.107)" fill="#282828"/>
              <path id="Path_529" data-name="Path 529" d="M199.592,139.687a2.287,2.287,0,1,1-.666-1.613A2.279,2.279,0,0,1,199.592,139.687Z" transform="translate(-138.846 -98.397)" fill="#282828"/>
              <path id="Path_530" data-name="Path 530" d="M219.435,139.687a2.275,2.275,0,0,1-1.4,2.125,2.3,2.3,0,0,1-2.491-.495,2.256,2.256,0,0,1-.495-2.491,2.269,2.269,0,0,1,3.72-.751A2.21,2.21,0,0,1,219.435,139.687Z" transform="translate(-137.089 -98.397)" fill="#282828"/>
              <path id="Path_531" data-name="Path 531" d="M197.83,151.39h20.008s-1.408,5.495-10.486,5.495A10.635,10.635,0,0,1,197.83,151.39Z" transform="translate(-138.606 -97.146)" fill="#fff"/>
              <path id="Path_532" data-name="Path 532" d="M184.912,139.729s10.887-14.692,8.37-29.589A21.459,21.459,0,0,0,183.1,124.679C181,135.164,184.912,139.729,184.912,139.729Z" transform="translate(-139.969 -100.808)" fill="#282828"/>
              <path id="Path_533" data-name="Path 533" d="M231.589,139.329s-12.645-15.238-10.119-30.108a24.864,24.864,0,0,1,10.887,15.545C234.439,135.243,231.589,139.329,231.589,139.329Z" transform="translate(-136.54 -100.891)" fill="#282828"/>
              <path id="Path_534" data-name="Path 534" d="M185.55,116.533s12.466,16.765,50.68,14.154c0,0-4.351-23.949-22.857-26.3C213.356,104.384,191.966,101.807,185.55,116.533Z" transform="translate(-139.69 -101.336)" fill="#282828"/>
              <path id="Path_535" data-name="Path 535" d="M154.409,366.3c-.555.87,31.807-140.776,22.191-138.643-.87.2-17.695,1.758-20.195,6.843C149.161,249.248,144,365.213,144,365.213Z" transform="translate(-143.371 -90.387)" fill="#ffb1a5"/>
              <path id="Path_536" data-name="Path 536" d="M144.051,354.248s-5.213,24.2,14.5,26.842a2.767,2.767,0,0,0,2.918-1.792v-.171a2.759,2.759,0,0,0-1.527-3.413c-3.225-1.45-8.207-5.085-5.733-13.31,0,0,2.849-.358,4.419,4.949a2.267,2.267,0,0,0,1.28,1.468,2.372,2.372,0,0,0,1.928-.034h0a2.352,2.352,0,0,0,1.254-2.355c-.469-3.737-2.346-12.7-9.538-15.1Z" transform="translate(-143.427 -79.43)" fill="#ffb1a5"/>
              <path id="Path_537" data-name="Path 537" d="M150.05,266.929s18.643,26.245,18.754,25.733c.094-.512,6.526-36.842,6.526-36.842L152.7,246.01Z" transform="translate(-142.841 -88.762)" fill="#f3978e"/>
              <path id="Path_538" data-name="Path 538" d="M202.088,187.307c.793,0-46.073.845-54.638,60.013l26.944,4.13,5.444,44.631h75.123l14.9-82.546S259.27,195.7,228.358,187Z" transform="translate(-143.067 -93.988)" fill="#febd11"/>
              <path id="Path_539" data-name="Path 539" d="M176.59,194.853s6.621,8.8,33.744,8.8c26.893,0,33.753-9.257,33.753-9.257s-15.861-8.856-34.247-11.722A121.718,121.718,0,0,0,176.59,194.853Z" transform="translate(-140.488 -94.372)" fill="#ffb1a5"/>
            </g>
            <g id="_1" data-name="1">
              <path id="Path_540" data-name="Path 540" d="M261.29,366.06l.068,118.014h58.376l4.505-118.014Z" transform="translate(-107.306 -43.905)" fill="#001823"/>
              <path id="Path_541" data-name="Path 541" d="M382.869,366.06l-.051,118.014H324.425L319.92,366.06Z" transform="translate(-102.093 -43.905)" fill="#001823"/>
              <rect id="Rectangle_253" data-name="Rectangle 253" width="60.368" height="41" transform="translate(188.5 322.152)" fill="#001823"/>
              <line id="Line_90" data-name="Line 90" x2="41.631" transform="translate(196.937 363.152)" fill="none" stroke="#282828" stroke-linecap="round" stroke-linejoin="round" stroke-width="1.4"/>
              <path id="Path_542" data-name="Path 542" d="M414.791,271.46c3.635,39.982-.188,69.126.853,142.723l-34.828,1.45-5.186-137.74Z" transform="translate(-97.161 -52.29)" fill="#ffb1a5"/>
              <path id="Path_543" data-name="Path 543" d="M379.57,301.788s21.568-2,36.328-11.722l-.375-8.566-35.953,4.9Z" transform="translate(-96.813 -51.409)" fill="#f3978e"/>
              <path id="Path_544" data-name="Path 544" d="M347.77,186.88s68.58,17.243,80.95,104.243c0,0-33.53,14.547-67.162,8.285l7.558-29.085Z" transform="translate(-99.632 -59.804)" fill="#3c5968"/>
              <path id="Path_545" data-name="Path 545" d="M161.409,220.11l51.03,60.27-15.622,43.975s-38.8-53.922-56.217-95.593Z" transform="translate(-118 -56.846)" fill="#ffb1a5"/>
              <path id="Path_546" data-name="Path 546" d="M164.269,225.011s-17.918,10.119-22.482,6.459c-7.968-6.4-14.547-29.828-14.547-29.828s33.488-12.679,33.189-12.141S164.269,225.011,164.269,225.011Z" transform="translate(-119.188 -59.571)" fill="#ffb1a5"/>
              <path id="Path_547" data-name="Path 547" d="M161.754,224.787c-.324-1.817,6.646-21.271,9.018-28.573a3.191,3.191,0,0,0-2.542-4.053h0a3.68,3.68,0,0,0-4.13,1.7l-8.43,14.367Z" transform="translate(-116.667 -59.339)" fill="#ffb1a5"/>
              <path id="Path_548" data-name="Path 548" d="M161.7,205.352l-5.768-28.7a3.606,3.606,0,0,0-4.172-2.867h0a3.1,3.1,0,0,0-2.56,3.507l2.517,21.389Z" transform="translate(-117.249 -60.965)" fill="#ffb1a5"/>
              <path id="Path_549" data-name="Path 549" d="M151.313,194.922l-7.833-20.511a3.589,3.589,0,0,0-4.454-2.176h0a3.1,3.1,0,0,0-2.048,3.677L142.8,199.6Z" transform="translate(-118.333 -61.115)" fill="#ffb1a5"/>
              <path id="Path_550" data-name="Path 550" d="M143.8,200.434l-9.914-20.161a3.966,3.966,0,0,0-5.034-1.92h0a3.458,3.458,0,0,0-1.834,1.9,3.383,3.383,0,0,0,.06,2.628l7.9,19.06Z" transform="translate(-119.228 -60.577)" fill="#ffb1a5"/>
              <path id="Path_551" data-name="Path 551" d="M127.9,201.982l-7.78-12.346a2.767,2.767,0,0,1-.1-2.15,2.846,2.846,0,0,1,1.459-1.579h0a3.2,3.2,0,0,1,3.89,1.092l10.23,14.155Z" transform="translate(-119.845 -59.909)" fill="#ffb1a5"/>
              <path id="Path_552" data-name="Path 552" d="M160.293,200.8s-11.68-1.22-12.883,14.35" transform="translate(-117.398 -58.569)" fill="none" stroke="#282828" stroke-linecap="round" stroke-linejoin="round" stroke-width="1.53"/>
              <path id="Path_553" data-name="Path 553" d="M182.73,304.025s9.6,33.206,28.727,28.786,48.931-45.253,48.931-45.253L253.716,217.8l-53.683,66.072Z" transform="translate(-114.27 -57.053)" fill="#ffb1a5"/>
              <path id="Path_554" data-name="Path 554" d="M213.93,260.1s18.105,27.354,33.583,37.03l10.117-12.781-39.042-30.2Z" transform="translate(-111.501 -53.836)" fill="#f3978e"/>
              <path id="Path_555" data-name="Path 555" d="M293.421,185.5S240.2,197.479,211.84,259.336c0,0,17.15,25.835,44.639,37.31l18.378-22.533Z" transform="translate(-111.683 -59.916)" fill="#3c5968"/>
              <path id="Path_556" data-name="Path 556" d="M289.543,185.695a133.248,133.248,0,0,0-33.873,24.8l4.113,180.791H390.765l-.427-179.819s-16.5-16.16-34.383-24.044C340.751,180.713,304.3,178.119,289.543,185.695Z" transform="translate(-107.797 -60.309)" fill="#3c5968"/>
              <path id="Path_557" data-name="Path 557" d="M327,232.77h36.448v18.208A18.231,18.231,0,0,1,345.225,269.2h0A18.221,18.221,0,0,1,327,250.978Z" transform="translate(-101.473 -55.727)" fill="none" stroke="#282828" stroke-linecap="round" stroke-linejoin="round" stroke-width="1.4"/>
              <line id="Line_91" data-name="Line 91" y1="59.137" x2="1.698" transform="translate(282.758 181.146)" fill="none" stroke="#282828" stroke-linecap="round" stroke-linejoin="round" stroke-width="1.4"/>
              <line id="Line_92" data-name="Line 92" x1="2.831" y1="51.266" transform="translate(147.054 179.164)" fill="none" stroke="#282828" stroke-linecap="round" stroke-linejoin="round" stroke-width="1.4"/>
              <path id="Path_558" data-name="Path 558" d="M288.656,128.561l-5.444-27.012c-.29-2.175-1.143-5.605-.1-8.8,1.723-5.269,8.089-15.413,18.941-10.767l2.338,10.69s-11.262,2.278-15.8,17.038Z" transform="translate(-105.415 -69.206)" fill="#282828"/>
              <path id="Path_559" data-name="Path 559" d="M301.055,87c-.188,3.545-3.328,19.077-14.35,24.73C286.705,111.743,277.064,91.057,301.055,87Z" transform="translate(-105.208 -68.656)" fill="#282828"/>
              <path id="Path_560" data-name="Path 560" d="M339.7,184.5h0V138.62H297.419V184.5L284.81,190.2s2.967,19.027,34.2,19.453c31.226.41,34.366-18.515,34.366-18.515Z" transform="translate(-105.207 -64.081)" fill="#ffb1a5"/>
              <path id="Path_561" data-name="Path 561" d="M300.46,82.928s7.764-20.477,31.687-9.586c14.488,6.531,18.515,15.417,20.272,21.671a25.653,25.653,0,0,1,.648,7.3l-5.8,27.221L324.69,91.895,302.8,93.622Z" transform="translate(-103.836 -70.151)" fill="#282828"/>
              <path id="Path_562" data-name="Path 562" d="M343.683,124.91s2.867-4.539,8.72-2.312,3.276,16.518-5.6,18.336a7.062,7.062,0,0,1-5.665-1.468S343.341,128.912,343.683,124.91Z" transform="translate(-100.213 -65.554)" fill="#f3978e"/>
              <path id="Path_563" data-name="Path 563" d="M351.11,127.194s-4.932-1.646-8.43,5.606" transform="translate(-100.09 -65.105)" fill="none" stroke="#282828" stroke-linecap="round" stroke-linejoin="round" stroke-width="1.4"/>
              <path id="Path_564" data-name="Path 564" d="M289.136,124.91s-2.833-4.539-8.7-2.312c-5.853,2.235-3.259,16.518,5.6,18.336a7.023,7.023,0,0,0,5.648-1.468S289.477,128.912,289.136,124.91Z" transform="translate(-105.883 -65.554)" fill="#f3978e"/>
              <path id="Path_565" data-name="Path 565" d="M281.23,127.194s4.9-1.646,8.4,5.606" transform="translate(-105.53 -65.105)" fill="none" stroke="#282828" stroke-linecap="round" stroke-linejoin="round" stroke-width="1.4"/>
              <path id="Path_566" data-name="Path 566" d="M348.991,114.707c0,8.613-.836,26.62-6.126,37.314-4.966,10.033-13.208,15.447-23.958,15.763-10.766.311-18.8-3.835-25.219-16.851-6.45-13.024-6.126-36.06-6.126-36.06s0-30.753,30.392-30.753C349.946,84.12,348.991,114.707,348.991,114.707Z" transform="translate(-104.968 -68.911)" fill="#ffb1a5"/>
              <path id="Path_567" data-name="Path 567" d="M296.67,151.38s3.548,17.976,19.179,20.041c18,2.372,22.781-19.6,22.781-19.6s-7.935,9.965-20.511,9.982A27.5,27.5,0,0,1,296.67,151.38Z" transform="translate(-104.162 -62.943)" fill="#282828"/>
              <path id="Path_568" data-name="Path 568" d="M313.79,124v7.116a2.506,2.506,0,0,0,.171.87,2.31,2.31,0,0,0,2.73,1.271l2.372-.631" transform="translate(-102.64 -65.373)" fill="none" stroke="#282828" stroke-linecap="round" stroke-linejoin="round" stroke-width="1.4"/>
              <path id="Path_569" data-name="Path 569" d="M306,121.045a2.77,2.77,0,0,1-4.727,1.98,2.765,2.765,0,0,1,1.962-4.735A2.762,2.762,0,0,1,306,121.045Z" transform="translate(-103.826 -65.881)" fill="#282828"/>
              <path id="Path_570" data-name="Path 570" d="M329.812,121.045a2.769,2.769,0,0,1-4.725,1.98,2.8,2.8,0,0,1-.6-3.028,2.767,2.767,0,0,1,5.322,1.049Z" transform="translate(-101.719 -65.881)" fill="#282828"/>
              <path id="Path_571" data-name="Path 571" d="M320.33,108.412l18.633,4.8s-.853-5.221-8.481-7.115C322.873,104.205,320.33,108.412,320.33,108.412Z" transform="translate(-102.056 -67.007)" fill="#282828"/>
              <path id="Path_572" data-name="Path 572" d="M311.219,108.412l-18.6,4.8s.853-5.221,8.462-7.115C308.676,104.205,311.219,108.412,311.219,108.412Z" transform="translate(-104.527 -67.007)" fill="#282828"/>
              <path id="Path_573" data-name="Path 573" d="M306.31,137.08s2.73,2.108,9.966,2.108a25.158,25.158,0,0,0,10.648-2.108" transform="translate(-103.308 -64.215)" fill="none" stroke="#282828" stroke-linecap="round" stroke-linejoin="round" stroke-width="1.4"/>
              <circle id="Ellipse_58" data-name="Ellipse 58" cx="11.758" cy="11.758" r="11.758" transform="translate(186.899 44.222)" fill="none" stroke="#fff" stroke-miterlimit="10" stroke-width="1.95"/>
              <circle id="Ellipse_59" data-name="Ellipse 59" cx="11.758" cy="11.758" r="11.758" transform="translate(215.782 44.222)" fill="none" stroke="#fff" stroke-miterlimit="10" stroke-width="1.95"/>
              <path id="Path_574" data-name="Path 574" d="M313.12,121.664s2.8-2.6,5.375,0" transform="translate(-102.695 -65.683)" fill="none" stroke="#fff" stroke-miterlimit="10" stroke-width="1.95"/>
              <line id="Line_93" data-name="Line 93" x1="3.941" y1="0.098" transform="translate(182.958 55.882)" fill="none" stroke="#fff" stroke-miterlimit="10" stroke-width="1.95"/>
              <line id="Line_94" data-name="Line 94" y1="0.065" x2="4.398" transform="translate(239.298 55.914)" fill="none" stroke="#fff" stroke-miterlimit="10" stroke-width="1.95"/>
              <path id="Path_575" data-name="Path 575" d="M296.67,88.207s5.664,16.044,31.124,15.558c17.3-.341,21.45,12.192,21.45,12.192s-3.02-28.015-3.805-27.75c-.768.26-26.347-6.817-26.347-6.817Z" transform="translate(-104.162 -69.152)" fill="#282828"/>
            </g>
          </g>
        </g>
      </g>
    </g>
  </g>
</svg>
