<svg xmlns="http://www.w3.org/2000/svg" width="77.619" height="76.401" viewBox="0 0 77.619 76.401">
  <g id="FB" transform="translate(-47.5 -25.708)">
    <path id="Path_6" data-name="Path 6" d="M124.6,98.09V29.566a3.5,3.5,0,0,0-3.5-3.5H51.358a3.5,3.5,0,0,0-3.5,3.485V98.1a3.5,3.5,0,0,0,3.5,3.495h38.73V71.27h-10V60.824h10V49.478c0-6.8,6.166-11.367,11.139-11.367h11.192v9.5h-5.163c-2.544,0-5.936,2.066-5.936,4.606v8.6H111.4V71.27H101.32v30.323H121.1A3.5,3.5,0,0,0,124.6,98.09Z" transform="translate(0.08 0.08)" fill="#fff"/>
    <path id="Path_7" data-name="Path 7" d="M121.18,102.109H100.963v-31.2h10.083V61.341H100.963V52.3c0-2.715,3.5-5.044,6.373-5.044h4.724V38.629H101.307c-4.47,0-10.7,4.158-10.7,10.929V61.341h-10v9.572h10v31.2H51.438A3.943,3.943,0,0,1,47.5,98.178V29.631a3.946,3.946,0,0,1,3.937-3.923H121.18a3.945,3.945,0,0,1,3.94,3.938V98.171A3.945,3.945,0,0,1,121.18,102.109Zm-19.341-.875H121.18a3.067,3.067,0,0,0,3.063-3.064V29.646a3.067,3.067,0,0,0-3.063-3.064H51.438a3.071,3.071,0,0,0-3.062,3.049V98.178a3.067,3.067,0,0,0,3.064,3.056H89.731V71.788h-10V60.467h10V49.558a12.159,12.159,0,0,1,11.576-11.8h11.629v10.38h-5.6c-2.424,0-5.5,1.962-5.5,4.168v8.165h10.08V71.788h-10.08Z" transform="translate(0 0)" fill="#fff"/>
  </g>
</svg>
