<svg xmlns="http://www.w3.org/2000/svg" width="76" height="76" viewBox="0 0 76 76">
  <g id="Instagram" transform="translate(-88.561 -92.605)">
    <g id="Group_46" data-name="Group 46" transform="translate(89.061 93.106)">
      <g id="Group_45" data-name="Group 45" transform="translate(0 0)">
        <g id="Group_44" data-name="Group 44">
          <path id="Path_8" data-name="Path 8" d="M197.119,148.332h-31.7a21.648,21.648,0,0,0-21.648,21.648v31.7a21.648,21.648,0,0,0,21.648,21.648h31.7a21.648,21.648,0,0,0,21.648-21.648v-31.7A21.648,21.648,0,0,0,197.119,148.332Zm14.741,53.91a14.37,14.37,0,0,1-14.37,14.37H165.044a14.37,14.37,0,0,1-14.37-14.37V169.8a14.37,14.37,0,0,1,14.37-14.37H197.49a14.37,14.37,0,0,1,14.37,14.37Z" transform="translate(-143.767 -148.332)" fill="#fff" stroke="#a3a3a3" stroke-width="1"/>
          <path id="Path_9" data-name="Path 9" d="M253.9,235.335a24.016,24.016,0,1,0,24.016,24.016A24.016,24.016,0,0,0,253.9,235.335Zm0,39.584a15.568,15.568,0,1,1,15.568-15.568A15.568,15.568,0,0,1,253.9,274.919Z" transform="translate(-216.397 -221.712)" fill="#fff" stroke="#a3a3a3" stroke-width="1"/>
          <circle id="Ellipse_6" data-name="Ellipse 6" cx="3.389" cy="3.389" r="3.389" transform="translate(54.919 13.403)" fill="#fff" stroke="#a3a3a3" stroke-width="1"/>
        </g>
      </g>
    </g>
  </g>
</svg>
