<svg xmlns="http://www.w3.org/2000/svg" width="89.705" height="76.401" viewBox="0 0 89.705 76.401">
  <g id="Linkedin" transform="translate(757.094 -244)">
    <g id="Group_48" data-name="Group 48" transform="translate(-677.462 300.352)">
      <path id="Path_10" data-name="Path 10" d="M-312.752,559.728a1.356,1.356,0,0,0,1.368-1.434c0-1.011-.616-1.5-1.876-1.5h-2.023v5.32h.761v-2.317h.941l.018.029,1.463,2.288h.812l-1.567-2.369Zm-.883-.535h-.887v-1.8h1.123c.584,0,1.246.1,1.246.856C-312.154,559.122-312.821,559.193-313.635,559.193Z" transform="translate(318.586 -554.426)" fill="#fff"/>
      <path id="Path_11" data-name="Path 11" d="M-327.843,544.193a4.981,4.981,0,0,0-5.038,5.032,4.98,4.98,0,0,0,5.038,5.032,4.979,4.979,0,0,0,5.034-5.032A4.98,4.98,0,0,0-327.843,544.193Zm0,9.405a4.28,4.28,0,0,1-4.3-4.373,4.281,4.281,0,0,1,4.3-4.373,4.278,4.278,0,0,1,4.3,4.373A4.277,4.277,0,0,1-327.843,553.6Z" transform="translate(332.881 -544.193)" fill="#fff"/>
    </g>
    <g id="Group_49" data-name="Group 49" transform="translate(-757.094 244)">
      <path id="Path_12" data-name="Path 12" d="M-686.347,244h-65.112a5.575,5.575,0,0,0-5.635,5.509v65.379a5.579,5.579,0,0,0,5.635,5.513h65.112a5.589,5.589,0,0,0,5.652-5.513V249.509A5.586,5.586,0,0,0-686.347,244Z" transform="translate(757.094 -244)" fill="#fff"/>
      <path id="Path_13" data-name="Path 13" d="M-700.683,318.155h11.343v36.46h-11.343Zm5.675-18.124a6.572,6.572,0,0,1,6.568,6.571,6.572,6.572,0,0,1-6.568,6.572,6.569,6.569,0,0,1-6.574-6.572,6.568,6.568,0,0,1,6.574-6.571" transform="translate(712.003 -289.513)" fill="#a3a3a3"/>
      <path id="Path_14" data-name="Path 14" d="M-598.5,392.666h10.862v4.984h.155a11.9,11.9,0,0,1,10.721-5.889c11.473,0,13.594,7.549,13.594,17.369v20h-11.33V411.4c0-4.228-.073-9.667-5.888-9.667-5.9,0-6.8,4.608-6.8,9.365v18.033H-598.5Z" transform="translate(628.268 -364.024)" fill="#a3a3a3"/>
    </g>
  </g>
</svg>
