<svg xmlns="http://www.w3.org/2000/svg" width="94.069" height="76.447" viewBox="0 0 94.069 76.447">
  <g id="Twitter" transform="translate(0 -0.822)">
    <path id="Path_5" data-name="Path 5" d="M94.069,9.872a38.6,38.6,0,0,1-11.085,3.039A19.356,19.356,0,0,0,91.47,2.233,38.65,38.65,0,0,1,79.215,6.917a19.317,19.317,0,0,0-32.887,17.6A54.792,54.792,0,0,1,6.548,4.355a19.32,19.32,0,0,0,5.973,25.766A19.224,19.224,0,0,1,3.78,27.707c0,.08,0,.161,0,.243A19.311,19.311,0,0,0,19.26,46.873a19.345,19.345,0,0,1-8.716.331,19.318,19.318,0,0,0,18.028,13.4A38.724,38.724,0,0,1,4.6,68.868,39.265,39.265,0,0,1,0,68.6,54.626,54.626,0,0,0,29.584,77.27c35.5,0,54.91-29.408,54.91-54.911q0-1.256-.056-2.5a39.225,39.225,0,0,0,9.63-9.99" fill="#fff"/>
  </g>
</svg>
