<svg id="calendly" xmlns="http://www.w3.org/2000/svg" xmlns:xlink="http://www.w3.org/1999/xlink" width="30" height="31.35" viewBox="0 0 30 31.35">
  <defs>
    <linearGradient id="linear-gradient" x1="1" y1="1" x2="0.605" y2="1.266" gradientUnits="objectBoundingBox">
      <stop offset="0" stop-color="#1d5371"/>
      <stop offset="1" stop-color="#3499d0"/>
    </linearGradient>
  </defs>
  <path id="Path_474" data-name="Path 474" d="M34.082,45.409H10.718A3.323,3.323,0,0,1,7.4,42.091V18.718A3.323,3.323,0,0,1,10.718,15.4H34.082A3.323,3.323,0,0,1,37.4,18.718V42.082A3.313,3.313,0,0,1,34.082,45.409ZM10.718,17.237a1.479,1.479,0,0,0-1.48,1.48V42.082a1.479,1.479,0,0,0,1.48,1.48H34.082a1.479,1.479,0,0,0,1.48-1.48V18.718a1.479,1.479,0,0,0-1.48-1.48Z" transform="translate(-7.4 -14.059)" fill="url(#linear-gradient)"/>
  <path id="Path_475" data-name="Path 475" d="M107.977,6.3a.7.7,0,0,1-.705-.705V.705a.705.705,0,1,1,1.411,0V5.591a.71.71,0,0,1-.705.714Zm-13.472,0A.7.7,0,0,1,93.8,5.6V.705a.705.705,0,0,1,1.411,0V5.591a.7.7,0,0,1-.705.714Zm7.62,15.8a5.3,5.3,0,1,1,3.562-9.231.29.29,0,1,1-.392.427,4.72,4.72,0,1,0,0,6.984.29.29,0,1,1,.392.427,5.207,5.207,0,0,1-3.562,1.393Z" transform="translate(-86.276 0)" fill="url(#linear-gradient)"/>
</svg>
