<svg xmlns="http://www.w3.org/2000/svg" xmlns:xlink="http://www.w3.org/1999/xlink" width="30" height="30" viewBox="0 0 30 30">
  <defs>
    <linearGradient id="linear-gradient" x2="1" y2="1" gradientUnits="objectBoundingBox">
      <stop offset="0" stop-color="#2c80ae"/>
      <stop offset="1" stop-color="#164057"/>
    </linearGradient>
  </defs>
  <path id="linkedin" d="M9.375,24.785h-4.1V11.543h4.1ZM9.785,7.324a2.4,2.4,0,1,0-2.4,2.4A2.4,2.4,0,0,0,9.785,7.324ZM24.727,17.5c0-3.555-.751-6.191-4.9-6.191a4.256,4.256,0,0,0-3.882,2.036h0v-1.8H11.953V24.785h3.984V18.21c0-1.722.438-3.39,2.573-3.39,2.105,0,2.173,1.969,2.173,3.5v6.465h4.043ZM30,26.484V3.516A3.519,3.519,0,0,0,26.484,0H3.516A3.519,3.519,0,0,0,0,3.516V26.484A3.519,3.519,0,0,0,3.516,30H26.484A3.519,3.519,0,0,0,30,26.484ZM26.484,2.344a1.173,1.173,0,0,1,1.172,1.172V26.484a1.173,1.173,0,0,1-1.172,1.172H3.516a1.173,1.173,0,0,1-1.172-1.172V3.516A1.173,1.173,0,0,1,3.516,2.344Zm0,0" fill="url(#linear-gradient)"/>
</svg>
