<svg xmlns="http://www.w3.org/2000/svg" xmlns:xlink="http://www.w3.org/1999/xlink" width="30" height="29.999" viewBox="0 0 30 29.999">
  <defs>
    <linearGradient id="linear-gradient" x1="0.827" y1="0.159" x2="0.242" y2="0.802" gradientUnits="objectBoundingBox">
      <stop offset="0" stop-color="#359bd3"/>
      <stop offset="1" stop-color="#1b4e6a"/>
    </linearGradient>
  </defs>
  <path id="telephone" d="M19.14,30h-.224a14.572,14.572,0,0,1-7.048-2.046,26.256,26.256,0,0,1-5.547-4.332C2.164,19.469.038,15.251,0,11.089-.022,8.451.278,4.614,3.137,1.754A5.647,5.647,0,0,1,7.062.005H7.11A4.771,4.771,0,0,1,11.257,2.45l.956,1.7.016.034A6.848,6.848,0,0,1,13,6.705a3.362,3.362,0,0,1-1,2.69L9.341,12.147a15.156,15.156,0,0,0,3.324,5.369,14.486,14.486,0,0,0,5.275,3.243L20.6,18a3.4,3.4,0,0,1,2.629-1.056,6.292,6.292,0,0,1,2.621.832l.035.019,1.668.937A4.771,4.771,0,0,1,30,22.886v.041a5.645,5.645,0,0,1-1.749,3.921A10.29,10.29,0,0,1,23.6,29.477,16.889,16.889,0,0,1,19.14,30ZM7.109,2.349H7.079A3.328,3.328,0,0,0,4.794,3.412c-2.237,2.237-2.469,5.441-2.45,7.657.031,3.526,1.926,7.193,5.633,10.9,3.745,3.745,7.432,5.66,10.959,5.691,2.208.02,5.4-.215,7.657-2.469a3.328,3.328,0,0,0,1.063-2.285v-.028a2.424,2.424,0,0,0-1.249-2.106l-1.651-.927c-1.627-.84-2.1-.589-2.491-.2L18.655,23.4,18,23.231a16.638,16.638,0,0,1-6.988-4.057l0,0a17.365,17.365,0,0,1-4.13-7.028l-.172-.64L10.33,7.747c.343-.343.609-.821-.2-2.515L9.214,3.6A2.426,2.426,0,0,0,7.109,2.349ZM25.881,4.124A13.97,13.97,0,0,0,15.938.005V2.349A11.732,11.732,0,0,1,27.656,14.067H30a13.97,13.97,0,0,0-4.119-9.943ZM15.938,9.38v2.344a2.346,2.346,0,0,1,2.344,2.344h2.344A4.693,4.693,0,0,0,15.938,9.38Zm0-4.687V7.036a7.039,7.039,0,0,1,7.031,7.031h2.344A9.385,9.385,0,0,0,15.938,4.692Z" transform="translate(0 -0.005)" fill="url(#linear-gradient)"/>
</svg>
